<?xml version="1.0" encoding="UTF-8"?>
<!-- Generator: Adobe Illustrator 22.0.0, SVG Export Plug-In . SVG Version: 6.00 Build 0)  -->
<svg version="1.1" id="Layer_1" xmlns="http://www.w3.org/2000/svg" xmlns:xlink="http://www.w3.org/1999/xlink" x="0px" y="0px" viewBox="0 0 825 210" style="enable-background:new 0 0 825 210;" xml:space="preserve">
<style type="text/css">
	.st0{fill:#DA3430;}
	.st1{fill:#020000;stroke:#FCFCFC;stroke-miterlimit:10;}
</style>
<path class="st0" d="M442.6,103.9c-2.3-1.8-1.1-2.8,0.1-4.3c7.1-8.6,11.5-18.5,13.8-29.5c5.4-25.6-6.7-47.9-29.8-56.8  c-4-1.8-10.9-3.1-18.9-3.3c0,0,0,0-0.1,0H172c-53.7,0-107.3,0-161,0.1c-1.3,0-3.1-1.2-4,0.9c0.5,0.6,1.2,1.1,1.6,1.8  C17.1,26.7,26.7,39.9,36,53.2c2.5,3.7,5.2,4.7,9.4,4.7c113.8-0.1,227.7-0.1,341.5-0.1c2,0,4-0.1,6,0.1c5.7,0.5,10.4,5,11.1,10.5  c0.8,6.1-2.4,11.4-7.9,13.6c-2.7,1.1-5.6,0.9-8.4,0.9H61.6c16.1,16.6,32.6,30.8,50.3,43.6c3,2.1,5.9,3.1,9.6,3.1  c86.3-0.1,172.7-0.1,259-0.1c2.2,0,4.4-0.1,6.5,0.2c5.6,0.6,9.6,4.7,10.4,10.4c0.8,5.2-2.1,10.3-7,12.6c-2.6,1.2-5.5,1.1-8.3,1.1  H158.7c27.4,15,56,25.5,86.1,32c36.5,7.9,73.6,12.2,110.9,13.7c17.4,0.7,34.9,1.7,52.3-1.6c28.5-5.4,46.7-22.8,50.3-50  C460.5,130.9,456.7,115.3,442.6,103.9z"/>
<path class="st1" d="M814.7,14.4c-14.5,0.2-29,0.2-43.5,0c-3.5-0.1-5.1,0.9-6.5,4.3c-16.8,42.1-33.8,84.2-50.8,126.2  c-0.8,2-1.4,4.1-3,5.7c-2.7,2.6-5.7,3.8-9.5,2.7c-2.7-0.8-4.1-2.6-4.4-5.4c-5-40.6-10.1-81.1-15-121.7c0,0,0,0,0,0  c-0.3-2.1-0.5-4.2-0.8-6.3c-0.2-1.3-0.4-2.3-0.7-3c0-0.1-0.1-0.2-0.1-0.3c0-0.1-0.1-0.2-0.1-0.3c0-0.1-0.1-0.1-0.1-0.2  c-0.9-1.5-2.5-1.9-5.3-1.9c-61.4,0.1-122.8,0-184.2-0.1c0,0,0,0,0,0c-2.1,0-4.1,0-6.2,0c-3.6,0-5,0.8-5.3,4.5  c-0.1,1.5-0.2,2.9-0.4,4.4c-1,10.3-2,20.5-3,30.8c0,0,0,0.1,0,0.1c0,0.1,0,0.1,0,0.2c-0.1,1.4-0.3,2.7-0.4,4.1h2.5  c0.6,0.1,1.2,0.2,2.1,0.2c16.5-0.2,33,0,49.5-0.1c2,0,3.1,0.3,3.5,1.7c-0.6,6-1.3,12-1.9,18c0.1,0,0.1,0,0.2,0  c-1.6,14.5-3.1,29-4.6,43.5c-2.4,23.1-4.9,46.3-7.4,69.5c-0.3,2.8-0.1,4,3.4,4c15.7-0.2,31.3-0.1,47,0c2.5,0.1,3.3-0.5,3.6-3.2  c4.2-43.1,8.6-86.2,12.8-129.3c0.3-2.3,0.8-3.5,2.3-4h43.2c0.7,0.2,1.2,0.7,1.5,1.4c1.3,11.5,2.5,22.9,3.8,34.4  c0.1,0,0.1-0.1,0.2-0.1c2.1,19.1,4.3,38.2,6.2,57.4c2.3,22.2,16.1,39.8,36.6,45.9c10.9,3.2,22,3.5,33.1,1  c26.7-6.1,43.9-23.3,53.7-48.2c17.2-43.7,33.9-87.6,51-131.4C818.9,15.4,818.7,14.3,814.7,14.4z"/>
</svg>